<?xml version="1.0" encoding="UTF-8"?>
<svg width="400px" height="37px" viewBox="0 0 400 37" version="1.1" xmlns="http://www.w3.org/2000/svg" xmlns:xlink="http://www.w3.org/1999/xlink">
    <title>Logo@2x</title>
    <g id="Valuer" stroke="none" stroke-width="1" fill="none" fill-rule="evenodd">
        <g id="Login" transform="translate(-514.000000, -246.000000)">
            <g id="Logo" transform="translate(514.000000, 246.000000)">
                <polygon id="Fill-1" fill="#3CB54C" points="0 36.9991685 10.571191 36.9991685 10.571191 0.000415730337 0 0.000415730337"></polygon>
                <path d="M23.7848056,0.000706741573 L15.8568281,7.9291 L15.8568281,29.0710663 L23.7848056,36.9994596 L52.8551652,36.9994596 L52.8551652,13.2142798 L47.5699854,13.2142798 L52.8551652,7.9291 L44.9267719,0.000706741573 L23.7848056,0.000706741573 Z M26.4280191,23.7854708 L26.4280191,13.2142798 L29.0704011,10.5718978 L39.6415921,10.5718978 L42.2843899,13.2142798 L31.7131989,13.2142798 L31.7131989,23.7854708 L42.2843899,23.7854708 L42.2843899,26.4282685 L29.0704011,26.4282685 L26.4280191,23.7854708 Z" id="Fill-2" fill="#3CB54C"></path>
                <polygon id="Fill-3" fill="#3CB54C" points="58.1410517 0.000706741573 58.1410517 36.9994596 89.854209 36.9994596 89.854209 26.4282685 68.7122427 26.4282685 68.7122427 23.7854708 89.854209 23.7854708 89.854209 13.2142798 68.7122427 13.2142798 68.7122427 10.5718978 89.854209 10.5718978 89.854209 0.000706741573"></polygon>
                <polygon id="Fill-4" fill="#3CB54C" points="121.567449 0.000706741573 121.567449 18.500291 103.068281 0.000706741573 95.1398876 0.000706741573 95.1398876 36.9994596 105.711079 36.9994596 105.711079 18.500291 124.210663 36.9994596 132.139056 36.9994596 132.139056 0.000706741573"></polygon>
                <path d="M145.352629,0.000706741573 L137.424236,7.9291 L137.424236,36.9994596 L147.995427,36.9994596 L147.995427,29.0710663 L163.852213,29.0710663 L163.852213,36.9994596 L174.422989,36.9994596 L174.422989,7.9291 L166.494596,0.000706741573 L145.352629,0.000706741573 Z M147.995427,13.2142798 L150.637809,10.5718978 L161.209,10.5718978 L163.852213,13.2142798 L163.852213,18.500291 L147.995427,18.500291 L147.995427,13.2142798 Z" id="Fill-5" fill="#3CB54C"></path>
                <polygon id="Fill-6" fill="#398CFF" points="370.927562 0 363 7.9275618 363 29.0716067 370.927146 36.9995843 392.068281 36.9995843 399.995427 29.0716067 399.995427 7.9275618 392.067865 0"></polygon>
                <g id="Group-5" transform="translate(372.000000, 10.000000)" fill="#FDCB03">
                    <path d="M18.6062489,7.99132361 L10.1156082,0.254724025 C9.7429306,-0.0849104723 9.18097577,-0.0848735113 8.808446,0.254687064 L0.317805339,7.99136057 C0.0192714579,8.26339343 -0.0793404517,8.68253101 0.0664706366,9.05916345 C0.212392608,9.43572197 0.56758768,9.67903614 0.97146037,9.67903614 L2.32755893,9.67903614 L2.32755893,17.430531 C2.32755893,17.7378616 2.5767499,17.9870895 2.88404353,17.9870895 L7.53798604,17.9870895 C7.84527967,17.9870895 8.0945076,17.7378986 8.0945076,17.430531 L8.0945076,12.7240669 L10.8296945,12.7240669 L10.8296945,17.430568 C10.8296945,17.7378986 11.0788854,17.9870895 11.3861791,17.9870895 L16.0398628,17.9870895 C16.3472304,17.9870895 16.5964214,17.7379355 16.5964214,17.430568 L16.5964214,9.67903614 L17.9527417,9.67903614 C18.3566144,9.67903614 18.7118094,9.43568501 18.8577314,9.05916345 C19.0033577,8.68249405 18.9047458,8.26339343 18.6062489,7.99132361" id="Fill-1"></path>
                    <path d="M16.4510316,1.11086242 L12.7135737,1.11086242 L17.0075901,5.0152731 L17.0075901,1.66734702 C17.0075901,1.36001643 16.7583992,1.11086242 16.4510316,1.11086242" id="Fill-3"></path>
                </g>
                <path d="M187.637269,0.000706741573 L179.708875,7.9291 L179.708875,29.0710663 L187.637269,36.9994596 L216.707628,36.9994596 L216.707628,13.2142798 L211.422033,13.2142798 L216.707628,7.9291 L208.779235,0.000706741573 L187.637269,0.000706741573 Z M190.280066,23.7854708 L190.280066,13.2142798 L192.922448,10.5718978 L203.493639,10.5718978 L206.136853,13.2142798 L195.565662,13.2142798 L195.565662,23.7854708 L206.136853,23.7854708 L206.136853,26.4282685 L192.922448,26.4282685 L190.280066,23.7854708 Z" id="Fill-7" fill="#398CFF"></path>
                <path d="M228.60001,0.000706741573 L220.672033,7.9291 L220.672033,36.9994596 L231.243224,36.9994596 L231.243224,29.0710663 L247.099594,29.0710663 L247.099594,36.9994596 L257.67037,36.9994596 L257.67037,7.9291 L249.741976,0.000706741573 L228.60001,0.000706741573 Z M231.243224,13.2142798 L233.88519,10.5718978 L244.456381,10.5718978 L247.099594,13.2142798 L247.099594,18.500291 L231.243224,18.500291 L231.243224,13.2142798 Z" id="Fill-8" fill="#398CFF"></path>
                <polygon id="Fill-9" fill="#398CFF" points="270.884649 0.000706741573 262.956672 7.9291 262.956672 29.0710663 270.884649 36.9994596 292.026616 36.9994596 299.955009 29.0710663 292.026616 21.142673 286.741436 26.4282685 276.170245 26.4282685 273.527863 23.7854708 273.527863 13.2142798 276.170245 10.5718978 286.741436 10.5718978 292.026616 15.8570775 299.955009 7.9291 292.026616 0.000706741573"></polygon>
                <polygon id="Fill-10" fill="#398CFF" points="305.240854 36.9991685 315.812045 36.9991685 315.812045 0.000415730337 305.240854 0.000415730337"></polygon>
                <path d="M321.097308,0.000706741573 L321.097308,36.9994596 L331.668499,36.9994596 L331.668499,26.4282685 L334.310881,26.4282685 L344.882072,36.9994596 L360.738858,36.9994596 L350.167667,26.4282685 L358.096061,18.500291 L358.096061,7.9291 L350.167667,0.000706741573 L321.097308,0.000706741573 Z M331.668499,10.5718978 L344.882072,10.5718978 L347.525285,13.2142798 L344.882072,15.8570775 L331.668499,15.8570775 L331.668499,10.5718978 Z" id="Fill-11" fill="#398CFF"></path>
            </g>
        </g>
    </g>
</svg>